<svg width="1600" height="900" viewBox="0 0 1600 900" fill="none" xmlns="http://www.w3.org/2000/svg">
  <defs>
    <linearGradient id="bg" x1="120" y1="72" x2="1480" y2="828" gradientUnits="userSpaceOnUse">
      <stop stop-color="#FFF6EC"/>
      <stop offset="1" stop-color="#F1E8DA"/>
    </linearGradient>
    <linearGradient id="panel" x1="0" y1="0" x2="1" y2="1">
      <stop stop-color="#FFFFFF"/>
      <stop offset="1" stop-color="#FFF7EE"/>
    </linearGradient>
    <linearGradient id="accent" x1="0" y1="0" x2="1" y2="1">
      <stop stop-color="#C35D3F"/>
      <stop offset="1" stop-color="#E28B62"/>
    </linearGradient>
    <linearGradient id="teal" x1="0" y1="0" x2="1" y2="1">
      <stop stop-color="#1F6B72"/>
      <stop offset="1" stop-color="#4E9096"/>
    </linearGradient>
    <filter id="shadow" x="-40" y="-40" width="2000" height="1200" filterUnits="userSpaceOnUse" color-interpolation-filters="sRGB">
      <feDropShadow dx="0" dy="20" stdDeviation="24" flood-color="#2A2C2A" flood-opacity="0.10"/>
    </filter>
  </defs>

  <rect width="1600" height="900" rx="40" fill="url(#bg)"/>
  <circle cx="170" cy="144" r="180" fill="#C35D3F" fill-opacity="0.08"/>
  <circle cx="1442" cy="172" r="210" fill="#1F6B72" fill-opacity="0.10"/>
  <circle cx="1410" cy="760" r="170" fill="#C35D3F" fill-opacity="0.06"/>

  <g filter="url(#shadow)">
    <rect x="72" y="72" width="1456" height="756" rx="36" fill="#FFFBF5" fill-opacity="0.92"/>
  </g>

  <rect x="112" y="112" width="108" height="42" rx="21" fill="#FFF3E6" stroke="#E8D6C1"/>
  <text x="166" y="139" text-anchor="middle" fill="#1D1F1D" font-family="Space Grotesk, Arial, sans-serif" font-size="20" font-weight="700" letter-spacing="4">LYTA</text>

  <text x="112" y="212" fill="#1D1F1D" font-family="Manrope, Arial, sans-serif" font-size="48" font-weight="800">Stateful Edge AI Workspace</text>
  <text x="112" y="256" fill="#5D605B" font-family="Manrope, Arial, sans-serif" font-size="24" font-weight="500">Private chats, reusable document memory, source-aware answers, and polished output review built on Cloudflare Workers.</text>

  <g>
    <rect x="112" y="320" width="268" height="380" rx="30" fill="url(#panel)" stroke="#E5D6C7"/>
    <text x="144" y="368" fill="#1D1F1D" font-family="IBM Plex Mono, monospace" font-size="18" font-weight="500" letter-spacing="2">CLIENT</text>
    <text x="144" y="412" fill="#1D1F1D" font-family="Manrope, Arial, sans-serif" font-size="34" font-weight="700">Workspace UI</text>
    <rect x="144" y="444" width="204" height="140" rx="22" fill="#FFF8EF" stroke="#ECDACA"/>
    <rect x="162" y="462" width="58" height="104" rx="14" fill="#FAF5EC" stroke="#E8D9CA"/>
    <rect x="232" y="462" width="98" height="22" rx="11" fill="#FFF4E8"/>
    <rect x="232" y="496" width="98" height="12" rx="6" fill="#E7D7C8"/>
    <rect x="232" y="526" width="78" height="24" rx="12" fill="#1F6B72"/>
    <rect x="144" y="606" width="96" height="36" rx="18" fill="#FFF1E2" stroke="#E5D0BE"/>
    <rect x="252" y="606" width="96" height="36" rx="18" fill="#C35D3F"/>
    <text x="144" y="676" fill="#5D605B" font-family="Manrope, Arial, sans-serif" font-size="21" font-weight="500">Guest access</text>
    <text x="144" y="708" fill="#5D605B" font-family="Manrope, Arial, sans-serif" font-size="21" font-weight="500">Account sign-in</text>
    <text x="144" y="740" fill="#5D605B" font-family="Manrope, Arial, sans-serif" font-size="21" font-weight="500">Theme + Board</text>
  </g>

  <g>
    <rect x="432" y="320" width="290" height="380" rx="30" fill="url(#panel)" stroke="#E5D6C7"/>
    <text x="464" y="368" fill="#1D1F1D" font-family="IBM Plex Mono, monospace" font-size="18" font-weight="500" letter-spacing="2">EDGE ORCHESTRATION</text>
    <text x="464" y="412" fill="#1D1F1D" font-family="Manrope, Arial, sans-serif" font-size="34" font-weight="700">Worker Router</text>
    <rect x="464" y="444" width="226" height="58" rx="20" fill="#FFF6EE" stroke="#E8D5C5"/>
    <text x="494" y="480" fill="#1D1F1D" font-family="Manrope, Arial, sans-serif" font-size="23" font-weight="700">Principal resolution</text>
    <rect x="464" y="522" width="226" height="58" rx="20" fill="#EFF7F6" stroke="#D2E6E4"/>
    <text x="494" y="558" fill="#1D1F1D" font-family="Manrope, Arial, sans-serif" font-size="23" font-weight="700">Library ingestion</text>
    <rect x="464" y="600" width="226" height="58" rx="20" fill="#FFF6EE" stroke="#E8D5C5"/>
    <text x="494" y="636" fill="#1D1F1D" font-family="Manrope, Arial, sans-serif" font-size="23" font-weight="700">SSE chat streaming</text>
  </g>

  <g>
    <rect x="774" y="320" width="382" height="380" rx="30" fill="url(#panel)" stroke="#E5D6C7"/>
    <text x="806" y="368" fill="#1D1F1D" font-family="IBM Plex Mono, monospace" font-size="18" font-weight="500" letter-spacing="2">STATE LAYER</text>
    <text x="806" y="412" fill="#1D1F1D" font-family="Manrope, Arial, sans-serif" font-size="34" font-weight="700">Durable Objects</text>

    <rect x="806" y="446" width="318" height="70" rx="22" fill="#FFF4E8" stroke="#E9D5C2"/>
    <circle cx="848" cy="481" r="18" fill="url(#accent)"/>
    <text x="884" y="474" fill="#1D1F1D" font-family="Manrope, Arial, sans-serif" font-size="24" font-weight="700">AuthDirectory</text>
    <text x="884" y="501" fill="#676A64" font-family="Manrope, Arial, sans-serif" font-size="18" font-weight="500">accounts, password hashes, sessions</text>

    <rect x="806" y="534" width="318" height="70" rx="22" fill="#EEF7F6" stroke="#D2E7E4"/>
    <circle cx="848" cy="569" r="18" fill="url(#teal)"/>
    <text x="884" y="562" fill="#1D1F1D" font-family="Manrope, Arial, sans-serif" font-size="24" font-weight="700">Workspace</text>
    <text x="884" y="589" fill="#676A64" font-family="Manrope, Arial, sans-serif" font-size="18" font-weight="500">profile, library, chat index, preferences</text>

    <rect x="806" y="622" width="318" height="70" rx="22" fill="#FFF4E8" stroke="#E9D5C2"/>
    <circle cx="848" cy="657" r="18" fill="url(#accent)"/>
    <text x="884" y="650" fill="#1D1F1D" font-family="Manrope, Arial, sans-serif" font-size="24" font-weight="700">Conversation</text>
    <text x="884" y="677" fill="#676A64" font-family="Manrope, Arial, sans-serif" font-size="18" font-weight="500">message state, titles, citations, follow-ups</text>
  </g>

  <g>
    <rect x="1208" y="320" width="280" height="380" rx="30" fill="url(#panel)" stroke="#E5D6C7"/>
    <text x="1240" y="368" fill="#1D1F1D" font-family="IBM Plex Mono, monospace" font-size="18" font-weight="500" letter-spacing="2">AI SERVICES</text>
    <text x="1240" y="412" fill="#1D1F1D" font-family="Manrope, Arial, sans-serif" font-size="34" font-weight="700">Workers AI</text>
    <rect x="1240" y="452" width="216" height="92" rx="24" fill="#1F6B72"/>
    <text x="1268" y="492" fill="#F7FBFB" font-family="Manrope, Arial, sans-serif" font-size="24" font-weight="700">Chat Model</text>
    <text x="1268" y="522" fill="#EAF6F5" font-family="Manrope, Arial, sans-serif" font-size="17" font-weight="500">mode-aware streaming</text>
    <rect x="1240" y="570" width="216" height="92" rx="24" fill="#C35D3F"/>
    <text x="1268" y="610" fill="#FFF7F0" font-family="Manrope, Arial, sans-serif" font-size="24" font-weight="700">Embeddings</text>
    <text x="1268" y="640" fill="#FFF0E6" font-family="Manrope, Arial, sans-serif" font-size="17" font-weight="500">retrieval vectors</text>
  </g>

  <g stroke="#7D7F7A" stroke-width="4" stroke-linecap="round">
    <path d="M380 510H432"/>
    <path d="M722 510H774"/>
    <path d="M1156 510H1208"/>
    <path d="M1156 650H1208"/>
    <path d="M1000 604V622"/>
  </g>
  <g fill="#7D7F7A">
    <path d="M421 500L432 510L421 520V500Z"/>
    <path d="M763 500L774 510L763 520V500Z"/>
    <path d="M1197 500L1208 510L1197 520V500Z"/>
    <path d="M1197 640L1208 650L1197 660V640Z"/>
    <path d="M990 611L1000 622L1010 611H990Z"/>
  </g>

  <g>
    <rect x="112" y="748" width="1376" height="44" rx="22" fill="#FFF6EC" stroke="#E8D8CA"/>
    <text x="146" y="776" fill="#676A64" font-family="IBM Plex Mono, monospace" font-size="18" font-weight="500">GUEST MODE</text>
    <text x="320" y="776" fill="#676A64" font-family="IBM Plex Mono, monospace" font-size="18" font-weight="500">ACCOUNT WORKSPACES</text>
    <text x="630" y="776" fill="#676A64" font-family="IBM Plex Mono, monospace" font-size="18" font-weight="500">RETRIEVAL WITH CITATIONS</text>
    <text x="1020" y="776" fill="#676A64" font-family="IBM Plex Mono, monospace" font-size="18" font-weight="500">OUTPUT BOARD</text>
    <text x="1264" y="776" fill="#676A64" font-family="IBM Plex Mono, monospace" font-size="18" font-weight="500">STREAMING UX</text>
  </g>
</svg>
